<?xml version="1.0" encoding="UTF-8"?>
<svg id="Layer_1" xmlns="http://www.w3.org/2000/svg" version="1.1" xmlns:xlink="http://www.w3.org/1999/xlink" viewBox="0 0 512 512">
  <!-- Generator: Adobe Illustrator 30.0.0, SVG Export Plug-In . SVG Version: 2.1.1 Build 123)  -->
  <defs>
    <style>
      .st0 {
        fill: #1c280c;
      }

      .st1 {
        fill: #426db5;
      }

      .st2 {
        fill: #282c3b;
      }

      .st3 {
        fill: #0d161a;
      }

      .st4 {
        fill: #5a7aaf;
      }

      .st5 {
        fill: #2d2109;
      }

      .st6 {
        fill: #0b3d8e;
      }

      .st7 {
        fill: #446fb7;
      }

      .st8 {
        fill: #142732;
      }

      .st9 {
        fill: #003ea0;
      }

      .st10 {
        fill: #4e6897;
      }

      .st11 {
        fill: #2e2c27;
      }

      .st12 {
        fill: #030610;
      }

      .st13 {
        fill: #191820;
      }

      .st14 {
        fill: #4670b4;
      }

      .st15 {
        fill: #34576b;
      }

      .st16 {
        fill: #a25e39;
      }

      .st17 {
        fill: #416eb8;
      }

      .st18 {
        fill: #263438;
      }

      .st19 {
        fill: #a6890b;
      }

      .st20 {
        fill: #04223b;
      }

      .st21 {
        fill: #283e51;
      }

      .st22 {
        fill: #032741;
      }

      .st23 {
        fill: #416fb9;
      }

      .st24 {
        fill: #406eba;
      }

      .st25 {
        fill: #111d25;
      }

      .st26 {
        fill: #020716;
      }

      .st27 {
        fill: #8d5e1b;
      }

      .st28 {
        fill: #030711;
      }

      .st29 {
        fill: #a18709;
      }

      .st30 {
        fill: #a0860e;
      }

      .st31 {
        fill: #9a8115;
      }

      .st32 {
        fill: #935d31;
      }

      .st33 {
        fill: #42302b;
      }

      .st34 {
        fill: #14151e;
      }

      .st35 {
        fill: #41250f;
      }

      .st36 {
        fill: #1f3440;
      }

      .st37 {
        fill: #312827;
      }

      .st38 {
        fill: #804727;
      }

      .st39 {
        fill: #7898cd;
      }

      .st40 {
        fill: #a3400b;
      }

      .st41 {
        fill: #a05314;
      }

      .st42 {
        fill: #020714;
      }

      .st43 {
        fill: #cbcbcb;
      }

      .st44 {
        fill: #040708;
      }

      .st45 {
        fill: #161417;
      }

      .st46 {
        fill: #020819;
      }

      .st47 {
        fill: #345d76;
      }

      .st48 {
        fill: #032135;
      }

      .st49 {
        fill: #0f161e;
      }

      .st50 {
        fill: #406eb9;
      }

      .st51 {
        fill: #7999ce;
      }

      .st52 {
        fill: #406eb8;
      }

      .st53 {
        fill: #81392c;
      }

      .st54 {
        fill: #2b445f;
      }

      .st55 {
        fill: #092235;
      }

      .st56 {
        fill: #4670b1;
      }

      .st57 {
        fill: #917313;
      }

      .st58 {
        fill: #c8431a;
      }

      .st59 {
        fill: #a24414;
      }

      .st60 {
        fill: #7483a2;
      }

      .st61 {
        fill: #0b202d;
      }

      .st62 {
        fill: #9d8011;
      }

      .st63 {
        fill: #a33a0a;
      }

      .st64 {
        fill: #02213c;
      }

      .st65 {
        fill: #5173a3;
      }

      .st66 {
        fill: #041e32;
      }

      .st67 {
        fill: #f83b03;
      }

      .st68 {
        fill: #fdc701;
      }

      .st69 {
        fill: #902e15;
      }

      .st70 {
        fill: #0186fe;
      }

      .st71 {
        fill: #9f8712;
      }

      .st72 {
        fill: #7697cd;
      }

      .st73 {
        fill: url(#linear-gradient);
      }

      .st74 {
        fill: #020e2a;
      }

      .st75 {
        fill: #3a343f;
      }

      .st76 {
        fill: #416eb9;
      }

      .st77 {
        fill: #8b801b;
      }

      .st78 {
        fill: #0d2021;
      }

      .st79 {
        fill: #0c1616;
      }

      .st80 {
        fill: #112f38;
      }
    </style>
    <linearGradient id="linear-gradient" x1="-382.07" y1="-346.41" x2="-375.66" y2="-588.9" gradientTransform="translate(704 -282) scale(1 -1)" gradientUnits="userSpaceOnUse">
      <stop offset="0" stop-color="#f24108"/>
      <stop offset=".57" stop-color="#fdca01"/>
      <stop offset="1" stop-color="#f6c713"/>
    </linearGradient>
  </defs>
  <path class="st74" d="M148,366c-25.06,29.68-48.24,62.34-74,92-1,1.14-15.21,18.78-16,19-18.46,24.93-45.89.93-58-17v-25c.76-3.94,10.45-13.41,13.69-15.23l2.31.23c29.39-28.88,63.39-54.09,94.73-83.4,7.46-3.86,11.93.49,16.78,5.6,6.97,7.42,14.16,14.63,21.56,21.62l-1.08,2.17h0Z"/>
  <path class="st23" d="M58,477C45.46,499.8,21.39,507.69,0,491v-31c4.72-.6,4.83,4.04,7,6.5,14.74,15.46,32.84,28.18,51,10.5Z"/>
  <path class="st50" d="M67,359l1.75-.52c5.22-6.47,13.55-6.38,5.3,1.98-1.3,5.37-4.82,9.05-10.58,11.04,2.5,6.52-1.87,9.92-6.87,4.89,3.03,3.82.54,7.12-7.46,9.9l-5.93,8.82C27.5,407.49,15.02,421.9,0,435v-19c23.46-17.53,44.3-38.43,67-57h0Z"/>
  <path class="st17" d="M181.22,104.2c-15.33,18.09-32.33,27.91-42.67,50.97-10.18,19.86-13.69,39.79-14.37,61.41-2.91,8.11-8.69,12.62-17.38,10.82-16.56,5.5-32.8,14.36-48.03,22.83-8.4,8,4.21,42.91,9.3,52.29,6.01,11.08,11.18,10.95,21.82,4.35,2.63-1.06,4.48.58,5.94,2.69l9.87,13.7c10.41,4.07,29.01-18.39,33.47-26.49,8.8-12.97,12.86-7.82,19.5,3.15-9.25,10.6-18.95,20.65-29.09,30.16-.89.86-3.1,3.73-2.53,4.93,1.08,2.26,23.39,21.36,24.99,20.95,3.3-2.24,6.26-4.92,8.89-8.02l1.29.25c.72-2.25,2.61-4.39,5.68-6.42l17.79-18.84c47.4,29.22,105.49,32.96,155.31,7.74l2.23.52,3.59-1.56c3.92-3.8,11.5-6.61,5.41.56-9.45,8.09-17.3,13.38-29,18-35.89,16.5-78.14,19.49-116,8-41.26-9.74-25.09-27.87-59,10-2.31-4.78-8.15-7.96-11.9-11.6-6.35-5.47-15.38-21.71-24.34-16.12-31.51,26.77-62.68,56.75-95.76,81.73,2.49-3.73.81-5.66,1-5.95.14-.2,2.91-.44,3.99-1.55,6-6.22,14.23-12.36,20.75-18.75,7.78-12.87,4.85-7.16,15.23-14.25-3.98-1.79-2.82-8.15,1.42-4.38,1.52,1.35-.24,2.85,4.6.87-5.53-7.86,4.53-7.47,6.75-10.24,1.48-1.84,1.16-7.48,6.24-9.26-1.65-5.68-6.4,5.54-8.99,2.51,4.97-4.48,11.6-9.55,16-14,1.76-.86,3.48.43,5.14,3.89,5.69-1.9,9.65-5.7,13.09-10.48,1.45-.37,8.76-4.17,5.4-6.25-15.01,1.05-14.96-5.15-17.98-17.38-3.96,6.54-14.8,15.67-15.31,2.55-7.21,2.4-11.38,1.67-12.38-6.92-8.91-1.25-11.63,11.65-1.35,12.9l.39,2.69c-6.03-.31-9.77-3.12-13.47-8.06-1.08-1.5-1.01-3.07-1.53-3.94-1.09-1.66-.4-2.49,2.09-2.48-.35-4.55.62-7.54,4.75-9.56,1.44-6.53.84-13.42-1.79-20.66.73-4.5.51-8.62-.67-12.35-4.68-5.67-9.19-12.94-1.13-17.67,1.13-5.42,4.12-7.36,9.24-8.39-1.85-1.71-2.35-3.33-1.49-4.88,4.13-3.58,15.28-1.51,15-7,3.13-.96,8.12-4.71,9.77-.43,2.57-3.04,5.18-5.33,9.32-5.69,2.27-3.2,7.13-2.09,8.91-5.87,1.26.57,2.27,1.21,3.05,1.93,2.03-9.03,5.17-10.75,13.92-6.74-1.15-10.65.49-20.1,4.9-28.36-1.04-6.64-.28-9.91,3.61-15.47-1.13-8.56,1.07-12.72,8.3-17.5,2.96-8.06,1.7-14.72,10.14-18.14-.38-6.83.75-7.78,7.35-8.28,8.74-17.54-7.24-6.13-10.53,1.93-2.07,2.61-5.93,3.63-5.74-.38,3.53-3.93,31.9-33.95,33.71-23.61,3.39-3.95,15.06-7.84,13.29-.39h0Z"/>
  <path class="st46" d="M449,11c4.73-.73,7.28,10.75,2,10-1.48.4-1.83-.53-2-2l-2.47.19c-.76-9.35-15.55-3.74-14.72,3.65.58,13.71.5,27.36-.25,40.93-1.98,8.07-26.93,16.85-34.84,13.77-1.88,1.77-3.46,1.92-4.72.46.02,3.19-5.14,4.64-7,2-2.49,1.95-4.82,2.61-7,2-3.19.98-5.28,1.53-7.1-1.71-5.41-20.73-41.63,21.05-56.89,9.71-86.51-25.45-189.87,28.47-186.12,128.73l-1.88,1.27c-3.61,10.85-11.59,11.78-21.68,11.08-13.36,6.32-26.6,13.13-39.73,20.42-6.75.37-5.78,7.98-4.91,13.08,1.65,9.65,4.82,19.96,8.36,29.1,3.92,10.13,7.67,19.28,19.04,9.89,4.85-3.01,7.31-.92,9.92,2.44,2.92-.56,4.24,3.62,3,6,1.77.49,2.77,1.15,3,2l4.22,1.03c1.63,7.65,10.81.59,14.51-2.82,6.81-9.99,14.42-19.48,22.81-28.49,1.39-.33,4.4-.9,5.81-.89,3.96,3.88,12.29,13.98,11.29,19.12l-30.45,32.09c5.59,4.98,11.23,10.14,16.92,15.47l.87,2.5c3.39-.03,6.8-2.09,10.23-6.18,2.24.49,6.04-1.58,2.77,2.18-2.96,2.79-7.07,10.14-12.02,8.6-1.28-.4-16.96-13.16-18.99-15.09-2.49-2.35-6.54-5.2-5.84-8.78.81-4.12,14.25-14.59,17.85-18.24,4.58-4.65,8.75-10.72,13.99-14.99-2.24-1.22-6.33-8.24-7.95-9.07-1.15-.59-2.71.93-3.45,1.66-10.76,10.58-15.73,25.76-31.05,30.95-2.42.82-7.53,2.5-9.83,1.81-1.85-.55-10.54-15.28-12.71-16.42-2.81-1.48-10.11,7.96-18.91,2.99-10.21-7.79-25.86-52.07-15.61-62.45,4.04-4.25,37.46-19.84,44.55-22.44,8.5-3.11,10.09,2.78,16.95-5.06,6.17-7.06,3.9-17.51,5.15-26.85,4.93-36.68,26.85-69.79,56.88-90.62l1.32-3.3c36.73-24.43,81.06-28.29,122.68-16.7,21.62,3.44,32.84-6.58,50.67-15.07,0,0,4.32.06,4.32.06,4.21.87,6.62-1.6,11,2,1.89-.78,3.85.47,5.89,3.76,3.8-1.49,8.04-2.31,12.72-2.48,5.62-5.6,10.7-4.57,17.36-1.41l16.69-7.61c1.83-11.51,2.01-23.35.52-35.51-.86-8.46,3.66-20.98,13.82-18.75,3.13-.59,8.78-.46,11,2h0Z"/>
  <path class="st12" d="M473,12c14.19-11.11,12.55,24.65,15.06,32.44,1.04,3.08,4.09,4.43,2.94,8.57,7.83-1.21,13.02-2.5,16.05,6.44,3.03,8.94.46,16.6-7.05,21.55-4.91,6.54-11.02,11.47-17,17,0,0-6.45,4.83-6.45,4.83-21.09,6.93-39.68,17.7-58.04,29.18-9.44,2.07-18.43,5.3-26.99,9.68,2.8,2.98,3.63,5.41,2.48,7.3,38.67,63.97,15.56,133.84-40.56,177.1-50.99,28.32-117.6,32.5-166.94-1.92-5.16,3.38-17.59,19.79-24.49,23.82l-1-2c6.02-10.53,16.04-19.76,25.68-26.65,31.51,18.59,72.41,30.35,108.92,21.55l2.4,1.09c93.67-14.21,143.17-126.43,84.51-202.35-.42-2.06.36-2.97,2.49-2.65l1.25-2.29c5.35-1.32,18.59-9.98,23.75-6.72,7.66-4.64,21.31-16.58,30-16,.67-4.1,27.77-15.63,32.99-14,8.68-7.29,14.1-18.56,25.33-22.83,6.13-3.6,6.53-16.86-1.33-17.18l-.96,2.16c-5.24-1.93-10.41-2.18-15.52-.75-2.32-.72-4.11-6.38-1.52-7.41l.85-.93c4.89.98,6.28-1.71,4.15-8.07l-2.01-1.31c-.29-3.97-1.45-27.26-6-25.69-.37,2.71-1.3,2.63-2,0-5.55,1.34-10.88,3.67-16,7-1.19,9.85-1.4,19.98-.63,30.4-2.71,1.33-4.64.98-6.41-1.6-.84-1.94-8.7-37.11-1.96-32.8.89.87.66-1.74,2,2l2.03-.25c3.22-6.48,13.03-10.2,19.97-8.75v.04Z"/>
  <path class="st50" d="M134,128c3.82,2.74,5.4-3.8,7-5.5,2.47-2.65,10.14-11.1,13.51-5.51,1.55,2.57-1.46,9.91-3.15,11.1s-6.13.69-6.36.92c.19,10.47.18,5.12-6.52,10.99-1.38,2.94-1.38,9.48-4.04,13.96-1.52,2.56-5.85,3.24-7.52,7.48-1.58,4.01.05,5.57-.36,8.63-.44,3.31-4.07,6.43-4.3,8.56,1.62,9.03.39,6.88-3.22,14.94-1.19,6.81-.82,15.49-1.05,22.46-3.6,1.16-7.21-2.72-10.28-1.87-3.99,1.1-1.52,8.82-6.21,8.9-1.99.03-2.52-2.88-2.51-4.04,2.17-33.88,11.18-65.86,35.01-91.02Z"/>
  <path class="st76" d="M438,9c-22.91,6.81-4.71,39.03-12.91,55.59-.6.78-16.51,8.07-17.85,8.25-4.18.55-5.16-4.18-11.75-2.85-2.68.54-2.24,3.01-4.19,3.81-5.62,2.34-10.4-.39-14,3.05-2.06.41-4.9-4.7-6.29-5.85,10.91-8.02,19.47,1.42,30.24-6.03.62-.43,1.44-1.32,1.76-1.97.35-13,.68-26,1-39,3.06-15.66,20.52-21.44,34-15h0Z"/>
  <path class="st50" d="M56,238c8.54,8.26-.4,6.19-3.56,8.94-1.66,1.45-1.5,3.85-2.55,5.45-1.13,1.7-3.4,1.55-3.91,4.11-1.31,6.53,5.72,9.03,6.59,15.45-2.86,10.88,5.38,20.23.94,31.07-.77,1.57-3.39,1.35-4.08,3.88-.6,2.22-.06,4.57-.56,6.46-.96,3.63-3.24-1.56-3.86.64-8.84-16.09-15.45-35.46-14-54,2.8-14.63,13.26-16.26,25-22h0Z"/>
  <path class="st50" d="M60,326c-1.9-1.84-5.02-1.77-6.95-3.55-5.15-4.75.24-14.16,5.4-14.29,5.92-.14,3.84,2.41,5.3,5.56,3.13,6.75,6.64.17,10.23,1.74s-1.69,6.69,4.52,6.41c4.75-.21,11.04-16.61,12.53-6.39.74,5.09,1.48,3.87,1.9,5.25-.18,13.41,9.21,6.83,15.65,10.19,1.71,7.91-2.39,6.33-6.11,9.03-1.8,1.3-2.43,3.76-3.97,5.03-1.97,1.62-9.1,6.8-11.28,5.78-.46-.21-3.66-4.84-4.22-5.78,7-7.08,2.08-5.43-1.98-10.52-2.58-3.37-3.87-8.15-8.5-8.73-4.59.94-8.77,1.03-12.52.25v.02Z"/>
  <path class="st14" d="M483,98c-13.43,17.7-12.58,13.26-31.67,21.83-20.4,9.15-37.19,20.81-57.33,29.17-.81-1.42-5.89-7.78-5-8.98,9.5-3.75,18.64-7.55,28.69-9.83,7.44-3.43,17.68-11.59,26.93-16.07,12.46-6.05,25.65-10.7,38.38-16.12Z"/>
  <path class="st50" d="M235,77c12.89-1.44,26.02-.31,39,1-7.65,2.16-16.36.51-24.37,1.13-22.02,1.71-50.59,12.36-68.63,24.87-2.24-5.37-11.61.17-13.5,3.98l-3.5-5.98c21.43-14.39,44.76-23.66,71-25Z"/>
  <path class="st7" d="M360,69l-32.94,16.56c-10.45,2.21-12.98.47-22.06-1.56,17.4-1.77,37.13-26.17,55-15Z"/>
  <path class="st56" d="M473,12c-6.83,2.9-10.51,1.73-17.04,7.46-2.9,2.54-2.89,7.32-4.96,1.54,2.57-1.76-.55-8.39-2-10,7.44-1.04,10.92-5.62,18.72-2.22,1.89.82,2.89,3.21,5.28,3.22Z"/>
  <path class="st39" d="M278,361h2c-23.8,4.9-50.04,3.07-73-5,24.1,6.27,46.28,7.35,71,5Z"/>
  <path class="st65" d="M353.49,326.99"/>
  <path class="st65" d="M353.4,329.28c-1.08,1.52-3.51,3.2-6.94,2.93-1.15-.09-1.58-1.56-.68-2.28l23.83-18.76h0c-3.38,7.27-11.12,13.64-17.01,18.95"/>
  <path class="st4" d="M500,81c-1.61,6.97-8.35,12.96-15,15,7.41-9.87,4.53-8.1,15-15Z"/>
  <path class="st50" d="M92,223c2.57,5.06-2.11,2.02-5.31,3.94-1.15.69-3.6,5.41-6.29,5.99-2.87.61-1.24-4.85-4.4-3.93,7.21-3.15,8.05-3.78,16-6h0Z"/>
  <path class="st9" d="M403,63c1.39-12.42-2.5-27.19,1-39-1.6,9.07,2.57,31.65-1,39Z"/>
  <path class="st72" d="M306,355c-10.01,3.16-17.31,5.59-28,6l28-6Z"/>
  <path class="st50" d="M71,231c4.79,6.28-3.13,5.92-8,4,2.69-1.28,4.96-2.65,8-4Z"/>
  <path class="st60" d="M60,475c3.17-6.72,9.25-11.53,14-17-3.14,6.52-8.76,12.1-14,17Z"/>
  <path class="st51" d="M76,327c-6.17-2.76-12.28,3.43-18-1,5.87.5,14.36-2.72,18,1Z"/>
  <path class="st17" d="M311,353c3.02-3.26,8.32-3.55,12-5"/>
  <path class="st70" d="M113,342c5.76,1,30.21,21.08,28.69,25.79-28.4,35.96-58.8,73.23-89.69,108.21-11.13,11.49-22.6,5.25-33.37-3.17-9.56-7.48-20.13-20.6-15.86-33.56,3.11-9.43,30.52-27.36,39.25-34.75,23.65-19.8,46.04-44.64,70.98-62.52Z"/>
  <path class="st6" d="M113,342c6.63-4.41,25.05,18.77,29.05,22.45,2.9,4.91-.68,4.26-2.07,6.29-27.04,36.16-56.38,73.05-87.97,105.27,27.86-35.07,61.37-73.9,88.63-108.97.93-4.79-24.85-21.53-27.64-25.04Z"/>
  <path class="st50" d="M143.1,301.11c4.72-2.96,8.27,6.77,2.25,7.81-3.56.61-4.03-6.69-2.25-7.81Z"/>
  <path class="st50" d="M163,110.01c.6,3.78-1.72,4.36-4.99,3.99v-3.99h4.99Z"/>
  <path class="st73" d="M461,24c3.23,7.18.09,24.06-1,32l2.14.38c1.77,4.16,4.06,5.37,6.86,3.62-1.57-1.68-1.61-7.34,0-9-.87-.28-.86-.62,0-1-1.38-2.85,1.74-4.08,3-1l1.36.14c.79,4.83,2.67,8.79,5.64,11.86.27-2.63,9.38-3.97,10-1,2.79.83,7.91,5.37,6.69,8.12-.36.8-12.01,6.74-13.69,5.88l-3.7,2.56c.04,3.74-4.5,10.73-7.42,12.38s-8.33,2.21-6.89-1.94c-1.52,1.23-2.05.66-1-1-9.52-2.46-34.98,13.99-43,18.01,1.32,1.35.85,2.6-1.42,3.77l1.42,1.23c1.37-.39,1.66-.34,1,1-.15,1.95-1.89,3.02-5.22,3.2-3.3,6.22-5.8,8.06-13.78,7.8-3.27.54-6.35.78-7-3-.61,1.72-2.52,2-3,0-11.29,4.45-22.14,9.8-32.56,16.05,1.61.49,3.35,2.26,2.95,3.91-.24,1-14.24,11.05-16.39,12.04-.01.67-.09,1.23-.39,1.41-10.2,6.15-21.12,12.42-31.77,18-.43.22-1.1-.03-1.84-.41-11.72,9.85-21.54,22.75-38,24-.86,1.64-1.58,1.86-2,0-4.26,1.3-8.26,3.09-11.98,5.6l-1.02-.6c-9,4.81-1.13,10.9,0,18l1.79.66c5.34,10.01,11.08,19.79,17.21,29.34l1.29-.43c4.62,6.62,10.2,12.09,16.71,16.43,3.15-1.19,11.42,4.32,14.39,6.65l.61,2.35c.87.28.86.62,0,1,1.84,10.69,3.14,44.24-14,41-3.11,1.5-12.05-3.76-13-7-19.52-12.65-34.16-32.73-44.91-52.9-2.19-4.97-5.1-6.19-8.73-3.67-3.97-2.68-7.29-3.11-9.97-1.28-3.47,2.99-12.89,9.3-15.39,3.85-3.1.11-4.23,2.09-3.37,5.93.1,13.16,1.14,27.44,4.57,40.1-1.37,9.85-20.73-8.9-23.81-12.65-.27-10.18-1.06-20.31-2.39-30.38-2.52.76-2.69,0-1-2-3.09-7.21-8.26-6.6-15.5,1.83-5.64,3.33-16.46-31.92-7.96-35.08,3.18-10.49,6.9-21.28,14.6-29.4,25.64-13.33,51.41-26.52,77.33-39.59,1.67-3.33,3.84-5.58,6.52-6.76l1.09-2.06c15.8-1.78,29.15.71,44.09,5.89,4.61.96,11.13,1.02,13.78-3.43,8.09-13.54-5.26-19.67-16.18-23.11l-.79-2.29c17.6-15.19,39.25-20.81,61.19-24.89,4.84-2.37,29.82-15.84,34.81-16.11.87.28.86.62,0,1,6.8,11.56,20.32,22.18,30.89,8.34,10.9-6,21.83-11.33,32.79-15.97.53-6.22.68-12.49.42-18.74l1.41-1.69c-.13-8.16-.29-16.3-.48-24.43.88-1.34,2.27-5.11,3.96-2.5l.04-.02Z"/>
  <path class="st75" d="M320.1,310c2.56-2.45,4.4-5.04,6.95-3.45l1.28-1.38c53.08-29.19,72.95-101.89,32.86-149.29l.23-2.68c-.89-.28-.88-.62,0-1,4.43-7.18,11.03-10.5,19-13,55.24,61.13,22.9,163.7-50,193-48.63,23.22-98.62,15.19-145-11l-3.72,1.49c-9.57,11.37-19.88,21.47-30.92,30.31-7.68-5.73-15.07-12.09-22.37-18.31l31.86-33.21c.54-6.49-8.91-12.8-11.86-18.28-2.27-.27-3.94-2.27-5-6-.89.14-1.65-.06-2.25-.69,1.73-3.87.04-9.22-4.22-10.45-2.62-9.74-6.13-18.69-10.53-26.86-.53-1.13.47-2.13,3-3-3.02,1.37-4.58-11.11-4.58-13.5l1.58-2.5c-5.9-98.17,100.5-162.46,188.02-129.98,2.83,1.19,1.64,2.45-1,3l-.65,2.22-18.06,8.2c-2.22,3.04-4.32,3.9-6.29,2.58-1.06,4.62-9.55,3.84-12,1l-1.14,1.29c-14.16-.74-27.04-1.03-40.78,3.35l-2.08-1.64c-71.46,17.8-108.57,107.65-58,165.65l1,4.34c3.26-1.31,5.95,2.89,6,6l1.64-.27c6.83,6.92,14.29,13.01,22.36,18.27,2.18-.87,6.28,1.45,6.78,3.49l8.22,3.51,2.41-1.02c21.87,8.59,48.33,12.94,71.29,6.82l2.29,1.2c5.25-.79,10.8-4.51,15.22-7.6l4.82-.79"/>
  <path class="st68" d="M139,267c2.18,2.48,2.79,5.85,2.47,9.04l-22.78,25.27c.8,6.49-13.49,13.38-18.69,10.69-7.16-12.12-10.68-25.77-14.83-39.2-2.43-11.71-1.93-15,9.58-20.65,8.99-4.41,20.5-9.68,29.71-13.5.39-.16.94.04,1.54.36,2.76-.27,3.01.12,4,2.51,2.89,6.97,6.65,18.15,9,25.49h0Z"/>
  <path class="st64" d="M129,236c-47.96,27.24-54.26,8.15-34,68-11.23-1.08-14.53,13.22-24,.5-5.28-9.85-19.71-44.53-10.79-54.32.81-.51,2.5.16,3.51-.46,12.11-8.28,27.31-13.02,39.99-20.52,17.57-.74,9.32,2.14,22.29-9.21,1.13,4.63,1.45,10.81,3,16.01Z"/>
  <path class="st22" d="M449,19c-1.79,1.64-.7,3.21-.52,4.97.41,4.14,2.6,27.45,5.17,28.07.94.23,2.28-.18,3.35-.03-.12-5.5.17-11.04.05-16.55s-2.96-6.94.96-12.46c1.86.4,1.57,1.06,0,2-1.46,15.01,1.49,31.82-.49,47.01-1.3,2.7-11.66,5.54-14.88,7.12-20.18,9.57-35.29,26.54-50.62-.12v-1c1.59-.72,4.14-2.07,4.01-3.99h.97l.63,2.07,11.66-.3c6.16-4.47,19.58-5.45,20.77-14.23,1.63-12.06-1.57-27.87-.09-40.09.69-5.72,3.46-7.18,8.61-8.39,10.62-2.49,6.21,1.81,10.44,5.93h-.02Z"/>
  <path class="st20" d="M314,90c19.94,1.29,32.37-13.86,49.61-17.95,10.08-.92,5.51,9.91,14.38,9.95-16.16,14.42-45.32,21.72-65,11l1-3h.01Z"/>
  <path class="st45" d="M385,80c-8.26,6.79-23.84,14.23-33.61,16.9-11.17,1.8-15.04,2.76-25.63,7.37s-19.85,10-29.76,14.74c-6.44-1.75-3.42-4.31,1.44-5.85-2.32-.56-11.67-3.33-10.39-5.92,5.03-6.09,19.27-12.25,25.95-14.23,10.18-1.02,15.97,5.01,24.42,3.91,5.05-.66,17.41-2.54,21.47-4.52,8.22-3.74,17.22-11.12,26.11-12.39h0Z"/>
  <path class="st18" d="M148,283c-4.92,5.16-10.61,10.94-15,16.5-5.17,9.95-14.24,22.24-27,21.49,2.36-3.51-.6-4.8-3-6.99,4.84-2.59,10.01-5.14,15.13-7.54-.09-2.37.31-4.07,1.47-6.13,1.95-2.16,20.47-25.96,23.4-23.33,3.42.21,3.84,3.28,5,6h0Z"/>
  <path class="st62" d="M143,277l-21.46,24.04c-2.04,1.63-.95,5.49-1.73,6.77-.55.89-6.17,2.1-7.71,2.79-3.71,2.09-7.52,6.31-12.1,1.4,4.61,1.34,5.93-1.5,8.73-2.77,5.66-2.58,6.93-.84,8.22-8.78l23.32-25.73c1.25-2.16-.42-5.09-1.26-7.72,3.62,1.51,3.32,8.96,4,10h0Z"/>
  <path class="st49" d="M185,321c-10.51,11.99-21.96,23.02-33.5,33.98-1.18-.59-1.76-2.34-2.5-2.98,11.7-7.78,19.72-20.32,29.77-30.01,2.88-2.34,3.21-1.57,6.23-.99h0Z"/>
  <path class="st18" d="M97,306c-2.74-1-9.56-19.48-8-22,3.22,7.06,5.01,14.88,8,22Z"/>
  <path class="st13" d="M380.78,132c4.98-2.07,4.63,1.42,4,5,.06.18-1.21,1.55-.28,3.68,50.6,64.77,20.42,163.26-54.71,192.32,68.62-33.83,102.2-128.88,50-194-2.46,1.44-4.33-.53-3-3-2.53,1.09-2.87,0-1-2-2.1-2.24-.26-3.67,2-2-.08-2.46,2.56-2.65,3,0h0Z"/>
  <path class="st21" d="M497,70c.68,1.06,1.22,2.12.29,2.89-10.38,6.47-15.63,17.23-24.29,25.11-10.71,5.16-22.43,8.87-33,14-9.43,1.57-3.27-5.92,1.78-8.43,5.16-1.85,9.9-4.04,14.22-6.57-2.22-3.13,2.94-5.79,5.64-4.5,9.47-1.07,13.38-3.37,18.36-11.5-2.24-4.95,11.14-11.27,15.16-12.62.54-.18,1.34.92,1.84,1.62Z"/>
  <path class="st36" d="M456,97c-.23.55.47,2.17-.14,2.83-1.15,1.26-11.58,2.77-14.39,5.14-1.64,1.38-2.76,4.48-5.47,5.54l3.99,1.49c-10.84,5.26-18.53,12.06-30,16l-1.2-1.77c2.01-2.02,2.41-3.77,1.2-5.23,2.45-1.83,3.88-4.09,4.27-6.77,13.45-5.44,27.18-12.44,39.9-19.27l1.83,2.04h.01Z"/>
  <path class="st15" d="M473,98l-2.02-1.51c8.15-3.75,9.79-11.33,14.45-16.55,3.11-3.49,8.67-5.48,11.57-9.93-1.5-1.17-.33-4.98,1-6-2.75-1.1-5.1-5.45-1-6,.34-1.11.12-2.22,1.49-2.98,6.64,3.88,8.27,11.67,4.35,18.32-2.94,5-9.22,5.42-13.39,9.61-8.15,8.2-2.97,8.55-16.46,15.04h0Z"/>
  <path class="st8" d="M410,121c5.89-.96,1.9,4.32,0,7-8.85,1.95-16.22,7.05-25,9-.17-.54-3.19-1.32-1.01-5-1.52,1.26-2.5,0-2.99,0,.88-4,10.8-9.14,15.1-10.69,4.26-.81,10-.92,13.9-.31Z"/>
  <path class="st47" d="M484,43c3.06,4.47-1.61,11.81-4.71,7.63-2.1-6.47-4.93-25.03-5.33-31.84,0,0,2.05-2.79,2.05-2.79.23-.21-.77-2.6,1.49-1.99,4.98,1.93,6.61,23.81,6.51,28.99h-.01Z"/>
  <path class="st54" d="M476,16c-.5,11.59,3.07,22.58,4,34,5.07.66,3.93-3.46,4-7,2.99,6.95,4.54,11.18-5,9l-1.28.35c-.91-4.49-1.82-8.94-2.72-13.35l-1.37-.18c-.06-7.38-1.27-13.99-3.63-19.82-.21-2.35,3.78-3.21,6-3Z"/>
  <path class="st2" d="M479,52c-.41,7.15,1.26,6.26,7.4,5.09,3.22.16,6.97,1.69,10.61.91-1.01,3.3.44,3.45,1,6-.84,3.19-2.84,2.38-5.99-2.43-5.78-3.85-9.1-1.12-13.01-.57-5.38-4.43-6.8-16.39-4-22,4.47,2.32-.21,9.32,4,13h0Z"/>
  <path class="st13" d="M339.56,328.04l.09,1c-6.79,2.9-24.65,15.29-31.05,11.88,7.41-4.65,22.8-8.43,30.96-12.87Z"/>
  <path class="st80" d="M474,16c.78,2.1-1.86,2.32-4,3,.46.73-.54,1.07-3,1-1.12,1.45-6.57,3.45-9,3,2.92-3.61,11.63-9.75,16-7Z"/>
  <path class="st43" d="M296,119c4.28.96,17.86,6.85,19.77,10.74,2.51,5.12,1.17,15.98-4.38,19.15-10.76,4.52-23-3.28-33.84-4.95-5.61-.78-17.51-.29-23.55.05-1.57,1.56-2.57,1.56-3,0-5.72,3.2-29.44,12.81-32,3-6.35-.31-6.58-12.7-3.91-17.59,5.16-9.44,37.6-16.5,47.6-15.37l1.3,1.96c4.71-2.57,26.11-1.57,29.81.53-.13,1.63.91,2.03,2.2,2.48Z"/>
  <path class="st44" d="M312.28,303.75c1.34-5.54,6.87-32.52-1.28-32.75-10.58-5.65-27.22-14.59-31-27-5.34-8.3-10.17-16.29-14.48-25.32-6.67-7.08-8.31-19.58,3.66-22.25,2.16,1.45,3.07.79,2.73-1.97,10.12.24,21.06-2.45,27.09-11.46-.28-.95.05-1.28,1-1h0c7.39,1.55-1.3,8.61-4.88,11.3l13.33-10.03,2.55.73c1.59-.75,1.94-.59,1,1,2.89,11.59-28.36,21.84-37.45,23.46,2.67,3.51,3.49,6.36,2.45,8.54l2.89,1.27c9.68,17.1,21.83,35.83,40.56,43.45,6.58,4.98,9.94,20.22,5.55,27.28,2.72,1.96,1.17,6.58-2,7-1.07,2.31-1.4,4.64-1,7,2.49-.13,2.35.17,1,2,3.56-1.32,7-1.3,3,2-1.76.96-5.09,1.9-7,3"/>
  <path class="st34" d="M232,110l.06,2.19c-29.33,11.91-56.81,30.4-69.09,61.6l-1.97.21c-3.32,9.03-4.53,20.14-4.82,30.16,4.01-5.42,8.06-11.03,12.14-16.81l46.42-22.95c7.71-5.42,16.29-9.77,25.73-13.04,4.49-2.98,8.19-7.8,13.52-7.36l-5.66,7.83c-23.23,13.31-50.15,23.44-73.01,36.99-9.7,5.75-7.58,5.84-12.12,14.88s-3.09,8.26-5.64,16.36c-8.97,8.11,1.36,23.31,3.45,32.93,2.46,1.75,10.19-7.78,14.39-7.07.57.09,3.12,5.87,3.6,7.08.23,3.89-3.54,1.96-4.36-1.32-.96-.82-8.12,3.38-8.18,4.33-.06.95,4.91,12.94,5.59,13.69,5.5,1.56,9.5,9.14,2.95,10.3-53.73-55.93-18.34-156.73,57-170h0Z"/>
  <path class="st28" d="M220,261l2.73.04c7.29,14.26,40.77,49.99,57.26,44.96-.95-4.6,14.97,5.91,17,7,2.3.24,3.3.91,3,2,1.8,2.01-1.96,3.7-4,3-21.9,9.12-65.01.16-85.38-11.12,2.72-7.1,2.87-14.62.45-22.56l-1.17-17.39c-.98-8.33,5.21-14.79,10.09-5.93h.02ZM218,304c-.03,3.88,3.7,3.91,6,5,17.41,7.8,50.02,13.44,66.99,6.02-7.28-5.82-7.88-2.85-14.59-2.07-26.04-4.26-44.55-30.3-59.9-49.94-1.7,13.24,4.68,28.08,1.5,41h0Z"/>
  <path class="st3" d="M205,252c7.81,1.59,16.38-7.56,21.42-7.06.89.09.85,2.11,1.55,2.59,2.91,2.01,6.58-3.53,8.02-2.53,10.54,22.51,28.15,45.15,48.01,61-.2-.04-3.83-.1-4,0-9.47-6.18-21.08-15.41-26.72-25.56-4.15-.89-5.47-3.06-5.52-7.21-3.77-6.68-7.78-13.51-12.41-19.62l-7.05-1.17c-4.7-3.93-6.08-2.71-9.62,2.09,2.53,1.88,4.9,4.57,1.32,6.47-12.09-11.03-7.2,16.47-6.99,22.49.64,8.26,4.65,15.37-1.01,22.99,2.9,1.08,5.44,3.15,8,4.52-5.15-.32-11.56-3.16-15-7-.24-.9.1-1.24,1-1-.98-1.22-.91-3.07.21-5.57-1.12-5.77-10.15-49.38-1.21-45.43h0Z"/>
  <path class="st61" d="M175,280c3.96-7.33-2.43-6.64-4.47-9.03-.95-1.12-6.35-14.31-6.22-15.49.19-1.81,9.29-6.66,11.12-6.51,1.04.08,1.4,6.01,3.57,4.04,3.26,10.09,2.53,21.63,3.51,32.27l-1.51.73c-2.26-2.18-3.83-3.47-6-6h0Z"/>
  <path class="st67" d="M472,42c2.57.64,2.68,6.27,0,7-3.93.64-8.19,3.23-9.75,7.11l-2.25-.11c-.45-8.71-1.35-23.21,1-32,2.44-4.32,9.43-4.5,9.28,2.35-.03,5.37.54,10.59,1.72,15.65Z"/>
  <path class="st25" d="M363,118c-2.37,1.17-9.98-2.5-8.95-4.74.67-1.45,20.67-11.13,23.95-11.26,2.77-.65,7.94-3.18,9.46-3.03,1.73.18,5.31,3.12,4.08,5.05-4.05,3.12-22.7,11.23-28.54,13.98Z"/>
  <path class="st79" d="M299,183c-3.04,8.66-12.49,10.47-19.76,12.83-2.35.37-3.99-.91-6.23-.83l1.99,4.99c-3.26.78-5.24-2.45-8.31-2.02-.4.06-4.29,4.93-4.48,5.79-.48,2.21.37,10.78,1.74,12.66.58.8,1.84-.49,2.53.5,2.71,3.85,3.97,12.66,8.47,17.41.9.95,2.51.47,2.82.84.38.45,1.85,7.36,2.22,8.83-1.49.31-2.82-1.03-4-4-7.24-4.54-19.58-29.97-18.6-37.65,7.59-13.46,29.43-6.87,38.75-19.3.01,0,2.85-.05,2.86-.05Z"/>
  <path class="st31" d="M205,252c-2.54.75-1.25,1.99-1.18,3.57.54,11.07.95,24.03,2.23,34.88.58,4.92,4.24,6.01-.05,12.55-1.94.35-4.32-1.17-5-3,6.71.88,1.4-7.55,1.06-9.56-.79-4.58-3.49-38.09-2.06-39.44,2.11-.9,3.9.78,5,1Z"/>
  <path class="st38" d="M456,97c-12.88,2.44-25.05,12.05-36.8,16.95-.76.38-2.66-.29-3.12.13.43,5.73-6.56,8.68-14.08,6.93,2.51-1.01,8.01-1.56,9.36-2.9,1.24-1.23.16-3.33,1.62-4.61,10.59-4.44,22.04-11.25,32.95-15.8,1.83-4.81,8.84-9.61,14.07-7.69,1.85.52,2.64.28,4.71-1.01,4.98,1.46,9.25-1.26,12.82-8.17l1.47.18c.28-.87.62-.86,1,0-1.52,4.46-1.15,2.31-3.4,5.11-1.22,8.21-17.11,4.15-20.6,10.9v-.02Z"/>
  <path class="st78" d="M208,248c-4.09-2.64-5.44-5.49.71-4.53-.04-.96.5-1.54,1.63-1.73-3.72-5.54-7.72-15.57,1.66-16.74,1.04.28,2.5-.43,3.51.97,1.58,2.2,3.02,13.93,5.28,17.39-2.81,4.12-8.08,5.88-12.79,4.64Z"/>
  <path class="st29" d="M310.99,271.01c4.07,1.79,3.05.4,3,3.45-.15,9.38-.29,20.45-2.44,29.61-2.2,9.4-5.17,7.42-11.56,10.94-1.36-.21-2.08-1.39-3-2,12.97.08,12.21-21.22,13.72-29.71-.05-3.31-2.67-10.4.28-12.29Z"/>
  <path class="st71" d="M272,193c-10.8,8.71-17.76,3.29-11.19,19.69,3.8,9.5,10.17,18.39,15.19,27.31,2.36,2.55,3.02,4.55,2,6-9.16-9.77-16.98-23.26-20.92-36.19-3.46-4.28-3.58-9.44,1.92-11.81,5.39-3.35,5.42-5.24,13-5Z"/>
  <path class="st37" d="M463,86c3.71,2.49.45,5.69-3,4-13.71,5.57-25.44,15.01-40,19-.76.34-3.71,1.29-3.99,1,.22-9.2,36-21.47,45.09-24.59l1.9.59Z"/>
  <path class="st69" d="M470,19c6.48,1.02,3.48,10.45,4.01,15.52,2.38,8.75.6,18.33,4.99,26.48-7.26-1.1-7.1-13.16-7-19-1.97-8.14.34-15.34-5-22,1.04-.37,1.94-.66,3-1Z"/>
  <path class="st41" d="M392,118l-.24,1.78c-5.34,3.26-10.81,6.26-16.4,9l.64,1.21c2.57-.61,3.34-.61,2,2-1.33.47-1.85,1.94-2,2,0,.69-.08,1.27-.37,1.43-2.78,1.03-14.78,8.77-16.63,6.57-.9,2.71-3.24,4.48-6,5,.28.95-.06,1.28-1,1,.28.94-.06,1.28-1,1-2.26,1.43-3.92,1.76-5,1,3.14-4.57,7.14-3.79,10.72-10.07.77-.65,3.04-.69,3.24-.98,2.24-3.31-3.23-2.9-3.96-4.45,2.79-4.03,8.17-3.66,11.02-5.13,5.59-5.36,17.73-10.46,24.98-11.36Z"/>
  <path class="st27" d="M351,149c.93,4.95-34.84,25.26-41,24-1.65-4.61,15.36-11.08,18.76-13.95,6.94-3.95,14.2-9.5,22.24-10.05Z"/>
  <path class="st57" d="M310,173c1.12,3.45-6.71,10.27-10,9-7.65,7.61-15.52,11.28-26,11,24.06-6.75,18.06-14.67,38-24-.22,1.42-1.02,2.98-2,4Z"/>
  <path class="st59" d="M463,86c-14.15.35-28.63,15.46-43,18,.15-.16-.57-1.28.6-2.09,7.33-3.37,35.55-20.62,42.4-15.91Z"/>
  <path class="st5" d="M201,300c1.63,1.11,3.04,2.43,5,3-.26.39-.65.69-1,1-10.94-6.31-14.8-9.11-24-18,2.18-9.77-1.5-20.89-1-31,.06.21.73.62.94,1.55,3.1,25.13-3.88,27.84,20.06,43.45h0Z"/>
  <path class="st32" d="M402,121c-6.84,2.76-15.24,6.57-21,11-.53,0-2.86-.05-3,0l-2-2c-1.24-3.14,14.72-8.73,17.69-11.64,2.88-1.24,5.51,2.17,8.31,2.63h0Z"/>
  <path class="st30" d="M212,225c-8.34,5.6-1.39,12.29,1,18.99h-6.99l1.99,4.01c-8.07-2.13-8.31-7.14,1-5.01.05-2.39-2.16-3.16-3.06-5.43-2.44-6.14-2.79-14.99,6.07-12.57h-.01Z"/>
  <path class="st35" d="M395,118c.51,3.78-15.73,9.93-19,12-4.46,0-9.8,4.97-13.99,4.5,8.7-7.18,20.72-9.96,29.99-16.5.92-.02,2.19-.15,3,0Z"/>
  <path class="st53" d="M498,64c1.03,2.26.88,4.21-1,6-4.71,1.45-17.96,5.05-17,11-4.55.12-2.01-6.97,2-7,1.45-.6,11.79-5.91,11.98-6.57.35-3.44-3.71-4.61-4.98-7.43,6.01-1.27,4,4.84,9,4Z"/>
  <path class="st40" d="M378,102l-21.99,11.02c-1.25,1.79,5.12,5.59,6.99,4.98-3.53,2.2-12.81-2.5-10.99-4.98,8.15-3.57,16.88-11.37,25.99-11.02Z"/>
  <path class="st77" d="M280,244c5.06,6.65,10.31,11.82,16,18-6.3-.27-14.68-10.88-18-16-.91-1.66-1.51-5.12-2-6,1.19,1.07,3.09,2.81,4,4Z"/>
  <path class="st59" d="M482,74c-2.97,1.73-2.46,5.98-3,7-.61,1.15-6.26,8.16-7.01,8.49-1.07.47-6.47,1.37-8.35,1.71-1.74.31-2.56,1.72-3.64-1.21,1.58-.67,3.24-1.27,4-3,.44.18,1.38-.16,2.01.02l-1.02,1.97c6.62,1.65,5.66-3.19,7.28-4.72.67-.63,2.66-.33,3.27-1.2,1.48-3.74-1.6-9.69,6.45-9.07h.01Z"/>
  <path class="st16" d="M447,96c6.33,2.21-24.18,12.29-26,14l-1-1c8.7-3.88,18.08-8.86,27-13Z"/>
  <path class="st63" d="M420,91c-7.53,5.78-16.62,3.71-22.51-2.98-1.55-1.53-6.95-7.39-5.49-9.01,8.79,4.29,8.21,15.65,20.54,14.06,2.73-.35,4.47-2.68,7.46-2.06h0Z"/>
  <path class="st58" d="M469,50v1c-2.48,3.76-2.48,6.76,0,9-2.05,3.71-8.36.46-9-4,3.5-6.08,3.09-5.01,9-6Z"/>
  <path class="st58" d="M467,20c3.59-.34,2.49-.24,3.15,2.3,1.37,5.21,1.32,13.79,1.85,19.7-4.68-3.53,1.3-20.49-6.42-20.01-2.6.68-4.93,2.25-7.58,3.01.06-.66-.04-1.34,0-2,2.88-2.15,6.53-2.13,9-3Z"/>
  <path class="st11" d="M469,60c-3.01-.22-4.11,1.43-4.04-2.5.06-3.35.44-5.71,4.04-6.5,1.48,2.75,1.52,6.26,0,9Z"/>
  <path class="st19" d="M259,198c-2.32,2.95-5.41,8.43-1.07,10.75.61,2,.45,5.06,1.07,7.25-2.4-6.09-11.38-16.83,0-18Z"/>
  <path class="st42" d="M276,107l3.43,1.39c-10.33,15.03-80.93,3.01-60.43,38.61l-.55,2.24c-7.24,1.52-13.3,4.65-18.19,9.41-4.4,2.15-29.19,16.51-33.78,16.37-1.5,4.22-7.9,3.64-5.47-1.01,10.96-31.67,41.45-52.17,71-64,14.76-4.19,29.24-5.18,44-3h0Z"/>
  <path class="st26" d="M361,153c42.38,49.37,21.8,125.17-34,154,.59-3.28-1.32-1.51-3-2,48.5-30.65,73.59-93.92,36.87-144.25l-46.86,25.43c-.8-.42-2.49-1.44-3.01-2.18,12.78-14.04,32.77-22.03,48.06-32.43l1.94,1.43h0Z"/>
  <path class="st79" d="M359,150c2.07-2,3.14-.6,2,2,.17.17-.17.83,0,1-20.19,11.46-39.29,23.9-58.52,36.98-3.05,2.4-13.72,12.49-14.48,5.02,4.62,1.03,4.37-2.19,6.5-4.01,2.25-1.92,8.47-4.9,5.5-9,14.3-14.67,35.18-20.2,51-33,3.05-2.78,9.1-1.23,8,1.01Z"/>
  <path class="st55" d="M288,106c.66,3.59,11.07,4.98,11.94,6.07,3.7,4.61-11.15,2.69-3.94,6.93-7.28-1.64-24.52-3.15-32-3l8.1-5.4c1.96-.85,8.89-.86,3.9-3.6,4.15.13,8.11.48,12-1Z"/>
  <path class="st0" d="M129,236c-9.33,10.08-28.64,12.7-39.92,20.58-9.95,7.01,1.41,21.69-.08,31.42-9.76-26.43-10.31-32.46,18.15-42.12,6.9-2.31,14.38-8.45,21.84-9.87h0Z"/>
  <path class="st75" d="M360.99,152c-.38-.39-1.63-1.64-2-2-3.25-.14.62-6.01,1.88-7.31,2.69-2.79,12.73-7.08,16.12-6.69.99,1.05,1.81,1.51,3,3h0c.45,4.37-.31,2.33-2.49,2.97"/>
  <path class="st33" d="M376,134c.39.56.59,1.57,1,2-6.17,3.99-17.16,5.13-18,14-1.76-1.67-5.46-.08-7-2,2.51-2.11,5.87-2.32,7-6,6.1-4.21,10.28-5.5,17-8Z"/>
  <path class="st48" d="M251,144c-2.32.71-2.53,3.93-3.3,4.7-5.84,5.79-17.37,8.84-24.41,12.09-16.25,11.76-36.33,18.22-53.82,28.18-4.13,4.16-5.94,8.63-8.59,13.45-.57,1.03-2.22,1.28-2.58,1.87-1.31,2.16-1.17,10.55-3.8,11.71-5.25,2.32-.65-5.59-.61-6.44.97-5.91.23-35.02,7.11-35.55,2.95,4.92,2.75.08,4.64-.83,12.35-3.15,21.22-11.02,33.6-16.23.81-.4,4.71-4.48,5.54-4.87,1.14-.53,13.47-5.02,14.22-5.07,1.23-.09,2.7,1.52,3.78,1.68,11.35,1.61,17.22-3.7,28.22-4.68h0Z"/>
  <path class="st24" d="M323.93,305c-3.23-2.63.74-13.73,2.64-17.05,19.59-18.44,29.62-41.63,30.36-68.7.16-11.39-5.64-32.26-11.94-40.8-1.84-5.22-34.09,15.43-38.36,17.73-6.72,4.35-24.16,24.96-31.72,17.32-2.18-2.51-1.96-6.7,1.68-7.63,14.58-3.2,27.72-9.17,36.31-21.41,0,0,45.18-24.67,45.18-24.67,1.87-1.02,4.21-.46,5.42,1.29,34.35,49.69,13.35,117.05-39.55,143.9h0Z"/>
  <path class="st52" d="M218,304.01c3.18-12.92-3.2-27.74-1.5-41,15.35,19.62,33.88,45.7,59.9,49.94,6.71-.78,7.31-3.75,14.59,2.07-16.97,7.42-49.57,1.78-66.99-6.02-3.27-1.02-5.87-1.36-6-5h0Z"/>
  <path class="st66" d="M280,306c-.15.09.62,1.82-1.9,2.56-8.11,2.39-10.44-2.57-16.19-5.98-9.81-5.82-21.73-14.87-29.32-23.68-4.22-4.9-7.87-13.07-12.59-17.91.35-3.94-1.98-4.45-5-5.5,4.62-4.53,7.16-11.05,13.94-4.95,5,1.56,6.62-1.36,10.26,4.73,3.86,6.84,10.56,14.55,11.27,21.73,5.88,2.87,3.61,1.1,6.98,7.02,5.72,6.34,13.43,12.42,19.86,18.14,1.31,1.15,2.76,1.57,2.69,3.84Z"/>
  <path class="st27" d="M353,147c2.08-1.56,3.84-3.51,6-5,.31,3.91-2.38,5.5-6,5Z"/>
  <path class="st1" d="M210,124c5.03-2.53,5.7.14,2,8-.06,3.6,1.72,11.63,0,13.51l-45,22.48c6.9-18.4,24.92-36.49,43-43.99Z"/>
  <path class="st10" d="M210,124c18.11-9.67,35.05-14.92,55.99-14.99-10.64,10.16-44.67,1.29-53.99,22.99.07-4.22,2.97-9.24-2-8h0Z"/>
  <path class="st44" d="M313.09,310.65c-3.08.89-13.61,11.05-17.09,7.4,2.82-1.31,2.46-2.14,3.23-2.57l-.6-1.07c15.38-5.3,13.77-30.56,12.37-43.36h0c1.45-.29,4.66-.34,5,0,.71.71-.24,5.83-.22,7.37,2.32,12.28-.7,14.24-2.78,25.63,3.73-2.31,5.51-9.44,5.89-13.61.23-2.46-2.87-6.22,2.09-6.39,1.34,1.53,3.67,25.95-1.41,26.05l-1.93.39"/>
</svg>